<svg xmlns="http://www.w3.org/2000/svg" viewBox="0 0 32 32">
  <defs>
    <linearGradient id="bg" x1="0" y1="0" x2="0" y2="1">
      <stop offset="0" stop-color="#16110a"/>
      <stop offset="1" stop-color="#0a0807"/>
    </linearGradient>
    <linearGradient id="spark" x1="0" y1="0" x2="1" y2="1">
      <stop offset="0" stop-color="#e9cf9a"/>
      <stop offset="0.55" stop-color="#c5a47e"/>
      <stop offset="1" stop-color="#8a6a3f"/>
    </linearGradient>
  </defs>
  <rect width="32" height="32" rx="7" fill="url(#bg)"/>
  <rect x="0.5" y="0.5" width="31" height="31" rx="6.5" fill="none" stroke="#c5a47e" stroke-opacity="0.32"/>
  <path d="M16 4
           C 16.6 9.4 17.6 12.4 20.0 14.0
           C 22.4 15.6 25.4 16.4 28 17
           C 25.4 17.6 22.4 18.4 20.0 20.0
           C 17.6 21.6 16.6 24.6 16 28
           C 15.4 24.6 14.4 21.6 12.0 20.0
           C 9.6 18.4 6.6 17.6 4 17
           C 6.6 16.4 9.6 15.6 12.0 14.0
           C 14.4 12.4 15.4 9.4 16 4 Z"
        fill="url(#spark)"/>
  <circle cx="24.5" cy="7.5" r="1.2" fill="#e9cf9a"/>
  <circle cx="7" cy="24.5" r="0.9" fill="#c5a47e"/>
</svg>
